<?xml version="1.0" standalone="no"?>
<!DOCTYPE svg PUBLIC "-//W3C//DTD SVG 20010904//EN"
 "http://www.w3.org/TR/2001/REC-SVG-20010904/DTD/svg10.dtd">
<svg version="1.0" xmlns="http://www.w3.org/2000/svg"
 width="350.000000pt" height="350.000000pt" viewBox="0 0 350.000000 350.000000"
 preserveAspectRatio="xMidYMid meet">

<g transform="translate(0.000000,350.000000) scale(0.100000,-0.100000)"
fill="#000000" stroke="none">
<path d="M2092 2682 c45 -61 63 -82 70 -82 4 0 19 23 33 50 l25 50 -70 0 c-66
0 -70 -1 -58 -18z"/>
<path d="M2290 2694 c0 -11 52 -94 58 -94 4 1 24 23 45 50 l38 50 -70 0 c-39
0 -71 -3 -71 -6z"/>
<path d="M2015 2650 c-45 -71 -45 -70 34 -70 39 0 71 3 71 6 0 3 -18 28 -39
56 l-40 49 -26 -41z"/>
<path d="M2423 2637 l-43 -52 71 -3 c39 -2 74 -1 76 2 4 4 -54 106 -61 106 0
0 -20 -24 -43 -53z"/>
<path d="M2225 2637 c-14 -24 -25 -47 -25 -50 0 -4 25 -7 55 -7 30 0 55 3 55
6 0 7 -51 94 -56 94 -2 0 -15 -20 -29 -43z"/>
<path d="M1984 2533 c10 -25 228 -374 232 -370 3 3 -49 313 -61 365 -5 21 -10
22 -91 22 -76 0 -85 -2 -80 -17z"/>
<path d="M2190 2530 c0 -28 59 -352 65 -358 3 -3 5 -1 5 4 0 5 13 83 30 174
16 91 30 173 30 183 0 14 -10 17 -65 17 -59 0 -65 -2 -65 -20z"/>
<path d="M2355 2538 c-9 -29 -66 -370 -62 -374 4 -4 237 369 237 380 0 3 -38
6 -85 6 -60 0 -87 -4 -90 -12z"/>
<path d="M1080 2406 c-317 -74 -551 -303 -627 -614 -22 -90 -22 -275 0 -365
71 -289 278 -508 567 -599 65 -20 95 -23 230 -23 148 1 159 2 246 32 272 94
469 305 540 578 24 93 25 295 2 380 -37 137 -110 287 -130 267 -7 -7 0 -30 24
-74 42 -77 74 -170 89 -264 9 -59 9 -75 -3 -99 -15 -28 -15 -27 -22 43 -4 40
-16 104 -27 143 -19 70 -80 202 -98 213 -9 6 -91 -79 -91 -94 0 -4 12 -34 26
-66 154 -348 -40 -753 -406 -849 -88 -23 -235 -22 -321 3 -161 46 -310 170
-381 317 -89 187 -89 368 1 550 50 101 112 171 205 233 104 69 177 93 310 99
124 6 188 -5 285 -48 36 -16 67 -28 71 -27 3 2 25 24 48 50 l43 46 -47 28
c-26 15 -85 41 -133 57 -79 28 -97 30 -226 31 -110 1 -154 -3 -205 -18 -74
-22 -183 -73 -244 -115 -53 -38 -144 -133 -186 -194 -65 -97 -119 -251 -121
-343 l-1 -39 -15 35 c-12 29 -13 44 -3 94 51 260 256 489 518 579 74 25 107
30 217 35 159 6 253 -14 387 -82 80 -40 98 -45 98 -25 0 12 -152 86 -225 109
-87 28 -308 37 -395 16z"/>
<path d="M1977 2375 c-246 -90 -447 -313 -513 -570 -25 -96 -25 -294 0 -390
18 -69 80 -213 108 -248 13 -18 15 -17 40 2 14 12 45 43 68 71 l42 50 -30 73
c-105 251 -46 524 152 703 61 56 189 126 254 139 17 4 32 11 32 17 0 6 -14 33
-32 61 -29 45 -34 48 -62 43 -17 -3 -73 -27 -124 -52 -235 -118 -401 -376
-402 -624 0 -47 -3 -61 -11 -53 -18 18 -23 98 -9 165 50 258 243 489 483 578
37 14 65 29 64 34 -5 15 -19 15 -60 1z"/>
<path d="M2470 2378 c0 -8 24 -22 56 -33 133 -45 283 -159 369 -280 86 -121
146 -289 131 -369 -9 -49 -14 -43 -27 33 -42 261 -224 485 -473 582 -43 16
-79 29 -81 27 -13 -17 -75 -121 -73 -122 2 -1 30 -10 63 -20 155 -46 293 -163
364 -307 93 -189 93 -369 0 -559 -99 -200 -307 -330 -534 -332 -106 -1 -174
13 -270 56 l-70 32 -68 -72 -68 -72 48 -29 c66 -41 171 -82 257 -100 101 -21
296 -13 391 17 274 86 483 303 557 577 29 109 29 297 0 405 -62 230 -217 421
-427 523 -105 52 -145 64 -145 43z"/>
</g>
</svg>
